Coordinates
version=1
nRows=7
nColumns=63
inDegrees=yes

Units are S.I. units (second, meters, Newtons, ...)
If the header above contains a line with 'inDegrees', this indicates whether rotational values are in degrees (yes) or radians (no).

endheader
time	pelvis_tilt	pelvis_list	pelvis_rotation	pelvis_tx	pelvis_ty	pelvis_tz	hip_flexion_r	hip_adduction_r	hip_rotation_r	knee_angle_r	knee_angle_r_beta	ankle_angle_r	subtalar_angle_r	mtp_angle_r	hip_flexion_l	hip_adduction_l	hip_rotation_l	knee_angle_l	knee_angle_l_beta	ankle_angle_l	subtalar_angle_l	mtp_angle_l	L5_S1_Flex_Ext	L5_S1_Lat_Bending	L5_S1_axial_rotation	L4_L5_Flex_Ext	L4_L5_Lat_Bending	L4_L5_axial_rotation	L3_L4_Flex_Ext	L3_L4_Lat_Bending	L3_L4_axial_rotation	L2_L3_Flex_Ext	L2_L3_Lat_Bending	L2_L3_axial_rotation	L1_L2_Flex_Ext	L1_L2_Lat_Bending	L1_L2_axial_rotation	L1_T12_Flex_Ext	L1_T12_Lat_Bending	L1_T12_axial_rotation	Abs_r3	Abs_r2	Abs_r1	Abs_t1	Abs_t2	neck_flexion	neck_bending	neck_rotation	arm_flex_r	arm_add_r	arm_rot_r	elbow_flex_r	pro_sup_r	wrist_flex_r	wrist_dev_r	arm_flex_l	arm_add_l	arm_rot_l	elbow_flex_l	pro_sup_l	wrist_flex_l	wrist_dev_l
      3.76666667	    111.28714349	     28.54537957	   -156.15940072	     -0.05946964	      2.22769276	      0.26142507	     43.03139383	     -9.07004849	    -19.54524160	     52.51916447	      0.91663234	     48.35293075	    -17.30372255	      0.00000000	     68.52109091	     -3.08606096	     27.90877805	     74.03973749	      1.29223720	     58.97467560	     15.11679276	      0.00000000	     -0.10318443	      6.27357099	     -2.83800861	     -0.19162380	      8.34384942	     -3.01538414	     -0.16952169	     15.25356050	     -3.01538414	     -0.11792948	     15.25356050	     -2.48325753	     -0.09581706	     12.79306596	     -2.30588199	     -0.05895958	      9.71776146	     -2.12850646	     -0.73703604	     70.96788975	    -15.78415247	      0.00000000	      0.00000000	    -27.57886975	    -41.41838575	     15.16101372	     17.07778220	     12.24284975	    -94.94914611	     97.99656987	     89.99559364	      0.00000000	      0.00000000	     30.26633446	     38.76991512	     42.59002938	     32.89434341	     89.99559364	      0.00000000	      0.00000000
      3.78333333	    108.45096030	     31.57091862	   -151.79868223	     -0.06515989	      2.22222558	      0.26933848	     38.52196248	     -5.99899431	    -23.22031115	     47.50913946	      0.82919091	     48.29795894	    -18.53006119	      0.00000000	     67.83352096	     -5.01486426	     28.81039367	     72.11633571	      1.25866750	     59.81559239	     18.62685911	      0.00000000	     -0.10752347	      6.74547283	     -3.02874142	     -0.19968183	      8.97147886	     -3.21803776	     -0.17665031	     16.40094263	     -3.21803776	     -0.12288857	     16.40094263	     -2.65014874	     -0.09984629	     13.75536819	     -2.46085241	     -0.06143891	     10.44873741	     -2.27155607	     -0.76802938	     76.30613770	    -16.84495117	      0.00000000	      0.00000000	    -27.52870847	    -42.29302313	     14.95767046	      9.48697850	      8.59610212	    -73.96574265	     95.06123552	     89.99559364	      0.00000000	      0.00000000	     27.07318059	     39.13037473	     33.92766493	     32.51089048	     89.99559364	      0.00000000	      0.00000000
      3.80000000	    106.15682772	     33.45496091	   -149.64609694	     -0.06960551	      2.21600488	      0.27462979	     35.60042945	     -3.00911816	    -24.80749751	     44.05800493	      0.76895725	     47.96951310	    -19.06228575	      0.00000000	     66.84263007	     -7.19412958	     29.31751248	     70.81523690	      1.23595904	     60.53138965	     19.33499628	      0.00000000	     -0.10283998	      7.01950550	     -2.77464921	     -0.19098412	      9.33594231	     -2.94806479	     -0.16895580	     17.06722567	     -2.94806479	     -0.11753581	     17.06722567	     -2.42781806	     -0.09549720	     14.31417561	     -2.25440248	     -0.05876276	     10.87321402	     -2.08098691	     -0.73457568	     79.40605011	    -15.43176652	      0.00000000	      0.00000000	    -27.55658786	    -42.13535564	     14.28312601	      2.57671486	      1.61642441	    -53.98875581	     92.46884554	     89.99559364	      0.00000000	      0.00000000	     24.05175565	     39.03893401	     31.24366879	     31.61057909	     89.99559364	      0.00000000	      0.00000000
      3.81666667	    103.53318629	     34.73077564	   -148.32910320	     -0.07328543	      2.20992647	      0.27875820	     33.31751700	     -0.39308913	    -25.94014859	     42.61366996	      0.74374885	     47.08456091	    -19.29217365	      0.00000000	     65.49700823	     -9.64410013	     29.82422556	     70.32424983	      1.22738970	     61.48102852	     19.51708764	      0.00000000	     -0.09670372	      7.20058671	     -2.28232811	     -0.17958848	      9.57678032	     -2.42497361	     -0.15887454	     17.50750652	     -2.42497361	     -0.11052268	     17.50750652	     -1.99703709	     -0.08979907	     14.68343641	     -1.85439159	     -0.05525650	     11.15370881	     -1.71174608	     -0.69074499	     81.45447695	    -12.69362424	      0.00000000	      0.00000000	    -27.62605861	    -41.12408725	     12.53067230	     -1.62871438	     -5.46408641	    -38.77988911	     90.47708714	     89.99559364	      0.00000000	      0.00000000	     20.17236553	     39.26498884	     28.06325212	     30.49944398	     89.99559364	      0.00000000	      0.00000000
      3.83333333	    100.61299564	     35.11031700	   -147.08294116	     -0.07704531	      2.20557119	      0.28228126	     31.16123861	      1.44294849	    -26.45733996	     42.49102225	      0.74160824	     46.13752135	    -19.41856723	      0.00000000	     63.44822264	    -11.63290322	     30.28568703	     70.01249109	      1.22194849	     62.39530317	     19.59340707	      0.00000000	     -0.08396091	      7.27390147	     -1.72167512	     -0.15592381	      9.67428896	     -1.82927982	     -0.13793939	     17.68576404	     -1.82927982	     -0.09595893	     17.68576404	     -1.50646573	     -0.07796610	     14.83293988	     -1.39886104	     -0.04797527	     11.26727338	     -1.29125634	     -0.59972441	     82.28382825	     -9.57544054	      0.00000000	      0.00000000	    -27.83517410	    -34.32642390	      6.53682675	     -3.36664319	    -10.16403537	    -28.16245229	     87.48530662	     89.99559364	      0.00000000	      0.00000000	     16.03457682	     39.56050443	     22.67975355	     29.24908227	     89.99559364	      0.00000000	      0.00000000
      3.85000000	     97.81055525	     34.47346981	   -145.63582166	     -0.08094286	      2.20463208	      0.28528831	     29.25284379	      2.03411157	    -26.48844335	     43.47497609	      0.75878148	     45.30176466	    -19.50481241	      0.00000000	     60.91437880	    -12.46959396	     30.62903284	     69.86765319	      1.21942059	     62.83021447	     19.61126680	      0.00000000	     -0.07382512	      7.23514640	     -1.16340436	     -0.13710064	      9.62274471	     -1.23611713	     -0.12128729	     17.59153495	     -1.23611713	     -0.08437473	     17.59153495	     -1.01797881	     -0.06855401	     14.75391054	     -0.94526604	     -0.04218368	     11.20724177	     -0.87255327	     -0.52732547	     81.84542309	     -6.47050602	      0.00000000	      0.00000000	    -27.98821827	    -17.46104729	     -1.26233368	     -3.38716083	    -12.60745545	    -19.79891291	     83.61040290	     89.99559364	      0.00000000	      0.00000000	     13.48365550	     38.27194238	     22.92724963	     28.23618711	     89.99559364	      0.00000000	      0.00000000
      3.86666667	     96.24032123	     32.96044875	   -144.07838231	     -0.08440483	      2.20762883	      0.28766319	     28.16271205	      0.89400519	    -26.34732631	     45.03089049	      0.78593730	     44.89032062	    -19.55168327	      0.00000000	     58.58817416	    -11.49087528	     30.67411660	     69.41724589	      1.21155950	     62.61136593	     19.58562444	      0.00000000	     -0.06574771	      7.10714005	     -0.87013488	     -0.12210008	      9.45249627	     -0.92451831	     -0.10801692	     17.28030033	     -0.92451831	     -0.07514306	     17.28030033	     -0.76136802	     -0.06105333	     14.49288000	     -0.70698459	     -0.03756824	     11.00895994	     -0.65260116	     -0.46962935	     80.39738971	     -4.83942916	      0.00000000	      0.00000000	    -27.99945204	    -16.19347639	     -2.15931932	     -1.29570631	    -12.54540192	    -12.29568090	     78.22631019	     89.99559364	      0.00000000	      0.00000000	     11.63197593	     36.02859652	     22.44154336	     28.35398000	     89.99559364	      0.00000000	      0.00000000
